<svg width="150" height="126" viewBox="0 0 150 126" fill="none" xmlns="http://www.w3.org/2000/svg">
<path d="M68.2773 0.0721664C67.7807 0.132362 66.7273 0.192558 65.9448 0.207603C65.1472 0.222656 64.4399 0.282852 64.3647 0.358093C64.2744 0.433334 63.8079 0.538673 63.3113 0.568771C62.8147 0.613922 62.0321 0.734306 61.5807 0.8246C61.1292 0.914894 60.4821 1.02023 60.1511 1.08043C59.82 1.12557 59.4889 1.21587 59.4137 1.29111C59.3234 1.36635 59.1278 1.42654 58.9622 1.42654C58.7967 1.42654 58.4656 1.48674 58.2098 1.56198C53.2287 3.09694 51.5433 3.6989 49.1806 4.82754C48.7593 5.02317 48.3379 5.18871 48.2326 5.18871C48.1272 5.18871 48.0369 5.2489 48.0369 5.3392C48.0369 5.41444 47.9015 5.48968 47.736 5.48968C47.5704 5.48968 47.435 5.54987 47.435 5.64017C47.435 5.71541 47.2995 5.79065 47.134 5.79065C46.9685 5.79065 46.833 5.85085 46.833 5.94114C46.833 6.01638 46.6976 6.09163 46.5321 6.09163C46.3665 6.09163 46.2311 6.13677 46.2311 6.19697C46.2311 6.27221 45.8549 6.48289 45.4034 6.69357C44.952 6.90425 44.5757 7.11493 44.5757 7.17513C44.5757 7.25037 44.4403 7.29552 44.2748 7.29552C44.1092 7.29552 43.9738 7.34066 43.9738 7.4159C43.9738 7.4761 43.7782 7.61153 43.5374 7.71687C43.2966 7.82222 42.4238 8.33387 41.5811 8.87562C40.7534 9.40232 39.6398 10.0494 39.1281 10.3353C38.6014 10.6062 38.165 10.8771 38.1349 10.9373C38.1048 11.0125 37.9544 11.0577 37.7888 11.0577C37.6383 11.0577 37.5029 11.1179 37.5029 11.2082C37.5029 11.2834 37.3976 11.3586 37.2772 11.3586C37.1417 11.3586 36.901 11.4941 36.7204 11.6596C36.5398 11.8251 36.299 11.9606 36.1937 11.9606C36.0883 11.9606 35.998 12.0208 35.998 12.1111C35.998 12.1863 35.8626 12.2616 35.6971 12.2616C35.5315 12.2616 35.3961 12.3218 35.3961 12.412C35.3961 12.4873 35.2907 12.5625 35.1704 12.5625C35.05 12.5625 34.9446 12.6227 34.9446 12.713C34.9446 12.7883 34.8543 12.8635 34.749 12.8635C34.6437 12.8635 34.4179 12.9839 34.2524 13.1193C34.1019 13.2698 33.7859 13.4805 33.5602 13.6009C33.3194 13.7213 33.1388 13.8718 33.1388 13.947C33.1388 14.0072 33.0485 14.0674 32.9432 14.0674C32.8378 14.0674 32.597 14.2028 32.4165 14.3684C32.2359 14.5339 32.0402 14.6693 31.9801 14.6693C31.9199 14.6693 31.664 14.8349 31.4082 15.0456C31.1674 15.2412 30.8965 15.4669 30.8063 15.5422C30.731 15.6024 30.415 15.8281 30.1291 16.0237C29.8431 16.2344 29.5723 16.43 29.5271 16.4752C29.482 16.5203 29.1509 16.7912 28.7747 17.0771C27.8868 17.7543 27.631 17.98 27.1193 18.4315C26.8936 18.6422 26.4873 18.9732 26.2164 19.1839C25.0577 20.0718 19.5649 25.7752 18.6771 27.0243C18.4814 27.3102 18.1805 27.6864 18.0149 27.8519C17.6237 28.2733 17.3377 28.6194 16.8863 29.2665C16.6907 29.5524 16.4348 29.8835 16.3144 30.0039C16.2091 30.1243 15.9984 30.3951 15.863 30.6058C15.5921 31.0422 15.5169 31.1325 15.0805 31.6592C14.9149 31.8549 14.7795 32.0655 14.7795 32.1257C14.7795 32.1859 14.6139 32.4267 14.4033 32.6675C14.1926 32.9083 14.027 33.1641 14.027 33.2243C14.027 33.2845 13.8916 33.4801 13.7261 33.6607C13.5605 33.8413 13.4251 34.0821 13.4251 34.1874C13.4251 34.2927 13.3649 34.383 13.2746 34.383C13.1994 34.383 13.1241 34.4884 13.1241 34.6088C13.1241 34.7291 13.0639 34.8345 12.9736 34.8345C12.8984 34.8345 12.8232 34.9398 12.8232 35.0602C12.8232 35.1806 12.763 35.2859 12.6727 35.2859C12.5974 35.2859 12.5222 35.3913 12.5222 35.5117C12.5222 35.6321 12.462 35.7374 12.3867 35.7374C12.3115 35.7374 12.2212 35.8578 12.1761 35.9932C12.0858 36.2641 11.6193 37.0918 11.4688 37.2423C11.3935 37.3175 11.1979 37.6486 10.8066 38.3709C10.7164 38.5365 10.611 38.702 10.5659 38.7471C10.4906 38.8224 10.1896 39.3942 8.54935 42.5695C8.17313 43.2918 7.85711 43.9991 7.85711 44.1044C7.85711 44.2248 7.79692 44.3151 7.70663 44.3151C7.63138 44.3151 7.55614 44.4506 7.55614 44.6161C7.55614 44.7816 7.49595 44.9171 7.40565 44.9171C7.33041 44.9171 7.25517 45.0525 7.25517 45.218C7.25517 45.3836 7.19497 45.519 7.10468 45.519C7.02944 45.519 6.9542 45.6544 6.9542 45.8049C6.9542 45.9705 6.894 46.1511 6.80371 46.1962C6.72847 46.2413 6.65322 46.4219 6.65322 46.5875C6.65322 46.738 6.59303 46.8734 6.50274 46.8734C6.42749 46.8734 6.35225 46.9787 6.35225 47.0991C6.35225 47.2195 6.27701 47.4603 6.20176 47.6258C6.11147 47.7914 5.99108 48.0622 5.90079 48.2278C5.82555 48.3933 5.75031 48.6341 5.75031 48.7545C5.75031 48.8749 5.69011 48.9802 5.59982 48.9802C5.52458 48.9802 5.44933 49.0855 5.44933 49.2059C5.44933 49.3263 5.3139 49.7627 5.13331 50.154C4.63671 51.2676 4.21535 52.3511 3.86923 53.4195C2.90612 56.3841 2.28912 58.4759 1.95805 59.9657C1.88281 60.3419 1.74737 60.9137 1.65708 61.2448C1.4163 62.2531 1.22067 63.3215 1.14543 64.0288C1.10028 64.405 1.00999 64.8414 0.934747 65.007C0.79931 65.3079 0.693969 66.1507 0.543483 67.9415C0.498337 68.4832 0.408046 69.0551 0.332803 69.2206C-0.0735101 70.0934 -0.118656 80.2663 0.25756 83.2158C0.453192 84.6153 0.618726 85.9848 0.709018 86.7522C0.754164 87.2037 0.859504 87.7153 0.934747 87.8809C1.00999 88.0464 1.10028 88.4527 1.14543 88.7838C1.22067 89.3857 1.37116 90.1683 1.67213 91.3722C1.76242 91.7333 1.89786 92.2751 1.9731 92.576C2.28912 93.9003 2.74058 95.3751 3.41777 97.211C3.79399 98.2795 4.15515 99.3178 4.2003 99.4984C4.24544 99.694 4.33574 99.8445 4.41098 99.8445C4.48622 99.8445 4.54642 99.9499 4.54642 100.07C4.54642 100.206 4.68185 100.597 4.84739 100.928C5.01292 101.274 5.14836 101.65 5.14836 101.756C5.14836 101.861 5.2236 101.951 5.29885 101.951C5.38914 101.951 5.44933 102.087 5.44933 102.252C5.44933 102.418 5.52458 102.553 5.59982 102.553C5.69011 102.553 5.75031 102.689 5.75031 102.854C5.75031 103.02 5.82555 103.155 5.90079 103.155C5.99108 103.155 6.05128 103.246 6.05128 103.366C6.05128 103.652 6.98429 105.413 7.13478 105.413C7.19497 105.413 7.25517 105.548 7.25517 105.713C7.25517 105.879 7.33041 106.014 7.40565 106.014C7.49595 106.014 7.55614 106.15 7.55614 106.315C7.55614 106.481 7.61633 106.616 7.67653 106.616C7.75177 106.616 7.88721 106.782 7.9775 106.993C8.08284 107.203 8.21828 107.459 8.30857 107.564C8.38381 107.67 8.97071 108.528 9.60275 109.476C10.2348 110.424 10.8066 111.221 10.8819 111.251C10.9571 111.281 11.0173 111.387 11.0173 111.492C11.0173 111.598 11.3032 111.989 11.6644 112.365C12.4319 113.208 12.8232 113.674 12.8232 113.765C12.8232 113.855 14.7042 115.646 15.3814 116.187C15.6673 116.428 16.1188 116.804 16.3596 117.03C16.6154 117.271 16.8863 117.451 16.9615 117.451C17.0518 117.451 17.2174 117.587 17.3377 117.752C17.4581 117.918 17.6237 118.053 17.714 118.053C17.7892 118.053 18.0601 118.219 18.3009 118.43C18.5416 118.625 18.8577 118.836 19.0081 118.881C19.1737 118.941 19.2941 119.047 19.2941 119.122C19.2941 119.197 19.4295 119.257 19.595 119.257C19.7606 119.257 19.896 119.317 19.896 119.408C19.896 119.483 19.9863 119.558 20.1067 119.558C20.2271 119.558 20.3475 119.603 20.3776 119.679C20.513 119.995 24.7266 121.876 27.0441 122.658C28.6393 123.185 29.0757 123.32 30.3247 123.636C30.6257 123.712 31.1674 123.847 31.5286 123.937C32.3111 124.133 33.3796 124.329 34.5985 124.509C35.1102 124.584 35.5767 124.675 35.6519 124.72C35.7272 124.765 36.2238 124.81 36.7505 124.84C37.2922 124.855 37.8039 124.916 37.8791 124.976C38.4209 125.397 52.6569 125.382 53.4544 124.976C53.5748 124.916 54.252 124.855 54.9593 124.84C55.6515 124.825 56.2836 124.765 56.3588 124.72C56.4341 124.675 57.0812 124.569 57.8035 124.494C59.504 124.329 62.1224 123.937 63.3113 123.697C63.5671 123.651 64.139 123.546 64.5904 123.456C65.0419 123.366 65.689 123.245 66.02 123.17C66.3511 123.095 67.0283 122.959 67.5249 122.854C68.0215 122.764 69.5113 122.402 70.8356 122.086C72.1599 121.755 73.4841 121.439 73.7701 121.364C74.056 121.304 74.5977 121.138 74.974 121.003C75.3502 120.883 75.7715 120.762 75.922 120.762C76.0575 120.762 76.2982 120.702 76.4487 120.627C76.5842 120.551 77.0055 120.416 77.3817 120.311C77.758 120.205 78.1793 120.07 78.3148 119.995C78.4652 119.919 78.7512 119.859 78.9618 119.859C79.1725 119.859 79.3381 119.784 79.3381 119.709C79.3381 119.618 79.5337 119.558 79.7745 119.558C80.0303 119.558 80.2711 119.483 80.3162 119.408C80.3614 119.317 80.6021 119.257 80.858 119.257C81.0987 119.257 81.2944 119.212 81.2944 119.137C81.2944 119.077 81.8211 118.866 82.4682 118.67C83.1002 118.475 83.6871 118.249 83.7774 118.174C83.8526 118.114 84.0483 118.053 84.2289 118.053C84.4094 118.053 84.6051 117.993 84.6803 117.933C84.7706 117.858 85.3425 117.647 85.9594 117.451C86.5764 117.241 87.1182 117.045 87.1633 117C87.2085 116.955 87.5998 116.789 88.0362 116.654C89.1799 116.293 92.7765 114.878 92.9571 114.728C93.0323 114.652 93.1828 114.592 93.2881 114.592C93.4085 114.592 93.7847 114.457 94.1158 114.291C94.4619 114.126 94.8381 113.99 94.9435 113.99C95.0488 113.99 95.1391 113.915 95.1391 113.84C95.1391 113.749 95.2746 113.689 95.425 113.689C95.5906 113.689 95.7712 113.614 95.8163 113.539C95.8614 113.448 96.0721 113.388 96.2828 113.388C96.4784 113.388 96.644 113.313 96.644 113.238C96.644 113.148 96.7794 113.087 96.9299 113.087C97.0954 113.087 97.276 113.027 97.3212 112.937C97.3663 112.862 97.5469 112.786 97.7124 112.786C97.8629 112.786 97.9984 112.711 97.9984 112.636C97.9984 112.546 98.1037 112.485 98.2241 112.485C98.3445 112.485 98.6003 112.41 98.7959 112.305C99.5032 111.944 99.6537 111.883 99.8794 111.883C99.9998 111.883 100.105 111.808 100.105 111.733C100.105 111.643 100.241 111.582 100.406 111.582C100.572 111.582 100.707 111.507 100.707 111.432C100.707 111.342 100.797 111.281 100.903 111.281C101.113 111.281 105.086 109.536 106.862 108.663C107.479 108.362 108.066 108.121 108.186 108.121C108.292 108.121 108.382 108.046 108.382 107.971C108.382 107.88 108.517 107.82 108.683 107.82C108.848 107.82 108.984 107.745 108.984 107.67C108.984 107.58 109.119 107.519 109.285 107.519C109.45 107.519 109.586 107.444 109.586 107.369C109.586 107.279 109.691 107.218 109.812 107.218C109.932 107.218 110.263 107.083 110.564 106.917C110.865 106.752 111.196 106.616 111.316 106.616C111.437 106.616 111.542 106.541 111.542 106.466C111.542 106.376 111.678 106.315 111.843 106.315C112.009 106.315 112.144 106.24 112.144 106.165C112.144 106.075 112.279 106.014 112.445 106.014C112.611 106.014 112.746 105.939 112.746 105.864C112.746 105.774 112.881 105.713 113.047 105.713C113.213 105.713 113.348 105.638 113.348 105.563C113.348 105.473 113.438 105.413 113.559 105.413C113.679 105.413 114.13 105.217 114.567 104.991C115.018 104.765 115.816 104.374 116.358 104.148C116.899 103.908 118.555 103.11 120.045 102.373C121.534 101.65 122.829 101.048 122.934 101.048C123.039 101.048 123.13 101.003 123.13 100.928C123.13 100.868 123.355 100.732 123.626 100.612C123.882 100.507 126.004 99.4834 128.321 98.3397C130.639 97.196 132.806 96.1576 133.137 96.0071C133.468 95.8717 133.995 95.6309 134.311 95.4654C134.642 95.3149 134.988 95.1795 135.108 95.1795C135.229 95.1795 135.319 95.1042 135.319 95.029C135.319 94.9387 135.424 94.8785 135.545 94.8785C135.77 94.8785 135.921 94.8183 136.628 94.4571C136.824 94.3518 137.08 94.2765 137.2 94.2765C137.32 94.2765 137.426 94.2013 137.426 94.1261C137.426 94.0358 137.561 93.9756 137.727 93.9756C137.892 93.9756 138.028 93.9003 138.028 93.8251C138.028 93.7348 138.163 93.6746 138.329 93.6746C138.494 93.6746 138.63 93.5994 138.63 93.5241C138.63 93.4338 138.765 93.3736 138.931 93.3736C139.096 93.3736 139.232 93.2984 139.232 93.2231C139.232 93.1328 139.337 93.0727 139.457 93.0727C139.668 93.0727 140.255 92.8018 140.435 92.6212C140.481 92.576 140.857 92.3804 141.263 92.1697C141.684 91.9591 142.046 91.7484 142.061 91.6731C142.091 91.6129 142.181 91.5678 142.271 91.5678C142.422 91.5678 144.002 90.5595 144.318 90.2586C144.423 90.1532 144.574 90.0629 144.649 90.0629C144.724 90.0629 145.025 89.8222 145.311 89.5362C145.612 89.2503 145.883 89.0095 145.928 89.0095C145.988 89.0095 146.109 88.9192 146.214 88.8139C146.319 88.7236 146.635 88.4678 146.906 88.2571C147.177 88.0464 147.478 87.8056 147.569 87.7304C147.659 87.6401 147.975 87.3993 148.261 87.2037C148.547 86.993 149.088 86.5415 149.465 86.1804C150.127 85.5483 150.142 85.5333 149.69 85.6386C149.45 85.6988 149.209 85.7891 149.164 85.8343C149.028 85.9998 147.162 86.9027 146.967 86.9027C146.846 86.9027 146.756 86.9629 146.756 87.0532C146.756 87.1284 146.62 87.2037 146.455 87.2037C146.289 87.2037 146.154 87.2639 146.154 87.3542C146.154 87.4294 146.018 87.5047 145.868 87.5047C145.702 87.5047 145.522 87.5799 145.477 87.6551C145.432 87.7304 145.251 87.8056 145.085 87.8056C144.935 87.8056 144.8 87.8658 144.8 87.9561C144.8 88.0314 144.664 88.1066 144.499 88.1066C144.333 88.1066 144.198 88.1668 144.198 88.2571C144.198 88.3323 144.062 88.4076 143.897 88.4076C143.731 88.4076 143.596 88.4678 143.596 88.5581C143.596 88.6333 143.505 88.7086 143.385 88.7086C143.28 88.7086 142.783 88.9042 142.301 89.145C141.82 89.3857 141.007 89.762 140.511 90.0027C140.014 90.2285 138.524 90.9508 137.2 91.5979C135.876 92.245 134.717 92.7717 134.612 92.7717C134.506 92.7717 134.416 92.8319 134.416 92.9222C134.416 92.9974 134.281 93.0727 134.115 93.0727C133.95 93.0727 133.814 93.1328 133.814 93.2231C133.814 93.2984 133.679 93.3736 133.513 93.3736C133.348 93.3736 133.212 93.4338 133.212 93.5241C133.212 93.5994 133.122 93.6746 133.001 93.6746C132.881 93.6746 132.399 93.8702 131.933 94.1261C131.466 94.3668 130.985 94.5775 130.865 94.5775C130.744 94.5775 130.654 94.6227 130.654 94.6829C130.654 94.8183 129.916 95.1795 129.646 95.1795C129.54 95.1795 129.45 95.2246 129.45 95.2998C129.45 95.36 129.224 95.4955 128.968 95.6159C128.472 95.8265 125.748 97.1207 122.904 98.5052C122.076 98.9115 121.309 99.2426 121.218 99.2426C121.113 99.2426 121.023 99.3028 121.023 99.3931C121.023 99.4683 120.887 99.5436 120.722 99.5436C120.556 99.5436 120.421 99.6038 120.421 99.694C120.421 99.7693 120.285 99.8445 120.12 99.8445C119.954 99.8445 119.819 99.9047 119.819 99.995C119.819 100.07 119.683 100.146 119.518 100.146C119.352 100.146 119.217 100.206 119.217 100.296C119.217 100.371 119.112 100.446 118.991 100.446C118.871 100.446 118.54 100.582 118.239 100.747C117.938 100.913 117.607 101.048 117.486 101.048C117.366 101.048 117.261 101.109 117.261 101.199C117.261 101.274 117.17 101.349 117.05 101.349C116.93 101.349 116.583 101.485 116.252 101.65C114.988 102.297 113.739 102.854 113.544 102.854C113.438 102.854 113.348 102.914 113.348 103.005C113.348 103.08 113.258 103.155 113.137 103.155C113.032 103.155 112.264 103.471 111.452 103.847C109.571 104.72 109.21 104.871 108.382 105.202C108.006 105.337 107.645 105.518 107.554 105.593C107.479 105.653 107.298 105.713 107.148 105.713C106.997 105.713 106.877 105.774 106.877 105.864C106.877 105.939 106.772 106.014 106.651 106.014C106.531 106.014 106.29 106.075 106.125 106.165C105.959 106.24 105.688 106.376 105.523 106.466C105.357 106.541 105.116 106.616 104.996 106.616C104.876 106.616 104.77 106.677 104.77 106.767C104.77 106.842 104.605 106.917 104.394 106.917C104.183 106.917 104.018 106.978 104.018 107.068C104.018 107.143 103.852 107.218 103.642 107.218C103.431 107.218 103.265 107.279 103.265 107.369C103.265 107.444 103.1 107.519 102.889 107.519C102.678 107.519 102.513 107.58 102.513 107.64C102.513 107.715 102.182 107.865 101.761 107.971C101.354 108.076 101.008 108.227 101.008 108.302C101.008 108.362 100.903 108.422 100.782 108.422C100.662 108.422 100.271 108.558 99.9095 108.708C99.5634 108.874 98.7658 109.175 98.1488 109.4C96.027 110.153 94.3114 110.785 93.7245 111.041C93.4085 111.176 92.9872 111.281 92.7915 111.281C92.5959 111.281 92.4304 111.342 92.4304 111.432C92.4304 111.507 92.2648 111.582 92.0692 111.582C91.8585 111.582 91.6478 111.658 91.6027 111.733C91.5575 111.823 91.3469 111.883 91.1512 111.883C90.9556 111.883 90.7449 111.959 90.6998 112.034C90.6546 112.124 90.4439 112.184 90.2483 112.184C90.0527 112.184 89.842 112.245 89.7969 112.335C89.7517 112.41 89.5711 112.485 89.4056 112.485C89.2551 112.485 88.9993 112.546 88.8488 112.621C88.4124 112.847 87.5396 113.087 87.1934 113.087C87.0129 113.087 86.8624 113.148 86.8624 113.238C86.8624 113.313 86.6667 113.388 86.426 113.388C86.1701 113.388 85.9294 113.448 85.8842 113.539C85.8391 113.614 85.5983 113.689 85.3575 113.689C85.1167 113.689 84.876 113.765 84.8308 113.84C84.7857 113.915 84.5449 113.99 84.3041 113.99C84.0633 113.99 83.8376 114.05 83.7924 114.126C83.7473 114.201 83.4915 114.291 83.2206 114.336C82.6789 114.427 82.2274 114.532 80.0153 115.104C78.2395 115.555 77.7279 115.661 75.3502 116.157C73.3939 116.549 71.8438 116.834 69.406 117.226C68.8492 117.316 67.1035 117.512 64.8161 117.752C64.0788 117.828 63.1608 117.918 62.7846 117.963C60.0307 118.294 51.4831 118.354 48.4884 118.083C43.402 117.602 40.2568 116.97 36.5849 115.721C34.764 115.089 34.9145 115.149 32.7626 114.126C31.8597 113.689 31.0922 113.283 31.0621 113.208C31.032 113.148 30.8815 113.087 30.716 113.087C30.5655 113.087 30.43 113.027 30.43 112.952C30.43 112.877 30.3097 112.786 30.1742 112.741C29.8883 112.651 29.0606 112.169 28.9252 112.019C28.88 111.974 28.5189 111.718 28.0975 111.432C27.6912 111.146 27.315 110.875 27.2698 110.83C27.2247 110.77 27.0892 110.664 26.9538 110.589C26.4572 110.318 25.3737 109.37 24.1999 108.181C22.8154 106.797 22.7251 106.692 21.4009 104.961C20.8591 104.254 20.3776 103.652 20.3174 103.637C20.2421 103.607 20.197 103.486 20.197 103.381C20.197 103.276 20.1368 103.155 20.0766 103.125C19.896 103.065 18.9931 101.696 18.9931 101.515C18.9931 101.425 18.9329 101.349 18.8426 101.349C18.7674 101.349 18.6921 101.259 18.6921 101.154C18.6921 101.048 18.5567 100.808 18.3911 100.627C18.2256 100.446 18.0902 100.206 18.0902 100.07C18.0902 99.9499 18.045 99.8445 17.9848 99.8445C17.9096 99.8445 17.7892 99.694 17.6989 99.4984C17.6086 99.3178 17.1271 98.3848 16.6455 97.4368C15.6523 95.5256 15.0504 94.1863 14.5989 92.9222C14.2829 92.0192 14.0571 91.4775 13.8615 91.0862C13.7863 90.9357 13.7261 90.6799 13.7261 90.5294C13.7261 90.3639 13.6659 90.1833 13.5756 90.1382C13.5003 90.093 13.4251 89.8522 13.4251 89.6115C13.4251 89.3707 13.3649 89.1299 13.2746 89.0848C13.1994 89.0396 13.1241 88.7988 13.1241 88.543C13.1241 88.3022 13.0639 88.1066 12.9736 88.1066C12.8984 88.1066 12.8232 87.911 12.8232 87.6702C12.8232 87.4144 12.763 87.1736 12.6727 87.1284C12.5974 87.0833 12.5222 86.8124 12.5222 86.5415C12.5222 86.2857 12.462 85.9998 12.3867 85.9095C12.3115 85.8343 12.2212 85.5032 12.1761 85.1721C12.1159 84.8411 12.0105 84.2241 11.9353 83.8177C11.4688 81.5153 11.2731 80.2663 10.9872 77.7231C10.7615 75.6163 10.7615 66.9482 11.0023 64.9317C11.3032 62.3584 11.4387 61.29 11.6193 60.4171C11.7096 59.9657 11.8299 59.2735 11.8751 58.8671C11.9202 58.4759 12.0105 58.1599 12.0707 58.1599C12.1309 58.1599 12.2212 57.8739 12.2664 57.5128C12.3115 57.1666 12.4168 56.5798 12.5222 56.2035C12.6125 55.8273 12.7329 55.3006 12.778 55.0297C12.8232 54.7589 12.9134 54.503 12.9887 54.4579C13.0639 54.4128 13.1241 54.1569 13.1241 53.871C13.1241 53.5851 13.1994 53.3142 13.2746 53.2691C13.3649 53.2239 13.4251 52.9831 13.4251 52.7273C13.4251 52.4865 13.5003 52.2909 13.5756 52.2909C13.6659 52.2909 13.7261 52.1555 13.7261 51.9749C13.7261 51.4933 15.3965 46.5875 16.3144 44.3904C16.495 43.969 16.7358 43.3972 16.8562 43.1112C16.9766 42.8253 17.1572 42.3889 17.2775 42.1481C17.3979 41.9073 17.4882 41.6214 17.4882 41.501C17.4882 41.3957 17.5635 41.3054 17.6387 41.3054C17.729 41.3054 17.7892 41.17 17.7892 41.0044C17.7892 40.8389 17.8644 40.7035 17.9397 40.7035C18.03 40.7035 18.0902 40.5981 18.0902 40.4777C18.0902 40.3573 18.2256 40.0263 18.3911 39.7253C18.5567 39.4243 18.6921 39.0933 18.6921 38.9729C18.6921 38.8525 18.7674 38.7471 18.8426 38.7471C18.9329 38.7471 18.9931 38.6117 18.9931 38.4612C18.9931 38.2957 19.0533 38.1452 19.1135 38.1151C19.1737 38.085 19.4145 37.6937 19.6402 37.2423C19.8659 36.7908 20.2271 36.1136 20.4528 35.7374C20.6635 35.3612 20.9795 34.8194 21.13 34.5335C21.6416 33.6306 22.0329 32.9835 22.5596 32.1709C22.8305 31.7495 23.0562 31.3282 23.0562 31.2379C23.0562 31.1476 23.1164 31.0723 23.1917 31.0723C23.2669 31.0723 23.3722 30.952 23.4324 30.7864C23.4776 30.6359 23.6883 30.3199 23.8839 30.0791C24.0946 29.8383 24.2601 29.5524 24.2601 29.4471C24.2601 29.3568 24.3053 29.2665 24.3805 29.2665C24.4407 29.2665 24.7266 28.8903 25.0125 28.4388C25.2985 27.9874 25.5844 27.6112 25.6596 27.6112C25.7198 27.6112 25.765 27.5209 25.765 27.4155C25.765 27.3102 26.0057 26.9641 26.2917 26.648C26.5776 26.332 26.8184 26.016 26.8184 25.9408C26.8184 25.8806 26.9689 25.6699 27.1645 25.4743C27.3451 25.2786 27.8116 24.7218 28.2028 24.2252C30.2946 21.5466 34.4029 17.3028 37.1869 14.9703C37.533 14.6844 38.1349 14.1577 38.5112 13.7965C38.8874 13.4504 39.2786 13.1645 39.3689 13.1645C39.4743 13.1645 39.6398 13.029 39.7602 12.8635C39.8806 12.698 40.0461 12.5625 40.1364 12.5625C40.2267 12.5625 40.3922 12.4271 40.5126 12.2616C40.633 12.096 40.8136 11.9606 40.9189 11.9606C41.0243 11.9606 41.1146 11.8853 41.1146 11.8101C41.1146 11.7198 41.2199 11.6596 41.3403 11.6596C41.4607 11.6596 41.566 11.5844 41.566 11.5091C41.566 11.4188 41.7015 11.3586 41.867 11.3586C42.0325 11.3586 42.168 11.2834 42.168 11.2082C42.168 11.1179 42.3034 11.0577 42.4689 11.0577C42.6345 11.0577 42.7699 11.0125 42.7699 10.9373C42.7699 10.8771 42.9956 10.7567 43.2665 10.6664C43.5223 10.5611 44.2296 10.3052 44.8015 10.0946C46.0204 9.62805 49.8729 8.6198 51.4229 8.34892C52.0098 8.25863 52.7171 8.10814 53.018 8.0329C53.319 7.95766 53.8307 7.89746 54.1617 7.89746C54.4928 7.89746 54.9593 7.83727 55.2001 7.76202C56.7802 7.25037 66.8176 7.25037 69.4812 7.74697C69.9026 7.82222 70.5798 7.92756 70.9861 7.98775C71.904 8.10814 73.8453 8.45426 75.0492 8.74018C77.1711 9.20669 81.6255 10.5761 82.9196 11.148C83.2206 11.2834 83.642 11.464 83.8526 11.5392C84.0633 11.6295 84.3493 11.7499 84.4847 11.8251C84.6352 11.9004 84.8609 11.9606 84.9813 11.9606C85.1017 11.9606 85.207 12.0208 85.207 12.1111C85.207 12.1863 85.3425 12.2616 85.4929 12.2616C85.6585 12.2616 85.8391 12.3218 85.8842 12.412C85.9294 12.4873 86.1099 12.5625 86.2755 12.5625C86.426 12.5625 86.5614 12.6227 86.5614 12.713C86.5614 12.7883 86.6968 12.8635 86.8473 12.8635C87.0129 12.8635 87.1633 12.9087 87.1934 12.9688C87.2536 13.1193 88.0512 13.6009 88.4124 13.7213C88.5478 13.7664 88.6682 13.8567 88.6682 13.932C88.6682 14.0072 88.8036 14.0674 88.9541 14.0674C89.1197 14.0674 89.2701 14.1276 89.3002 14.1878C89.3303 14.263 89.7818 14.6091 90.3236 14.9703C91.6779 15.8732 93.3483 17.2126 93.9202 17.8596C94.0406 18.0101 94.2061 18.1305 94.2813 18.1305C94.477 18.1305 96.0721 19.8461 97.6071 21.7422C97.9231 22.1184 98.2692 22.5398 98.3896 22.6903C98.51 22.8257 98.6003 23.0063 98.6003 23.0665C98.6003 23.1267 98.811 23.4126 99.0518 23.6985C99.2925 23.9844 99.5032 24.3155 99.5032 24.4058C99.5032 24.5111 99.5785 24.6014 99.6537 24.6014C99.744 24.6014 99.8042 24.6917 99.8042 24.7971C99.8042 24.9024 99.9396 25.1432 100.105 25.3238C100.271 25.5043 100.406 25.7451 100.406 25.8806C100.406 26.001 100.481 26.1063 100.557 26.1063C100.647 26.1063 100.707 26.2417 100.707 26.3922C100.707 26.5577 100.767 26.7082 100.827 26.7383C100.933 26.7835 101.369 27.6413 101.956 28.9655C102.377 29.8985 103.07 32.1859 103.326 33.4199C104.048 37.0316 103.943 39.5748 102.859 43.969C102.799 44.2399 102.844 44.3151 103.1 44.3151C103.265 44.3151 103.416 44.2399 103.416 44.1646C103.416 44.0743 103.521 44.0142 103.642 44.0142C103.762 44.0142 104.093 43.8787 104.394 43.7132C104.695 43.5476 105.026 43.4122 105.146 43.4122C105.267 43.4122 105.372 43.337 105.372 43.2617C105.372 43.1714 105.508 43.1112 105.673 43.1112C105.839 43.1112 105.974 43.036 105.974 42.9607C105.974 42.8705 106.11 42.8103 106.275 42.8103C106.441 42.8103 106.576 42.735 106.576 42.6598C106.576 42.5695 106.712 42.5093 106.877 42.5093C107.043 42.5093 107.178 42.434 107.178 42.3588C107.178 42.2685 107.253 42.2083 107.359 42.2083C107.464 42.2083 108.156 41.9073 108.909 41.5462C109.646 41.185 111.151 40.4777 112.249 39.951C113.333 39.4394 114.266 38.8976 114.311 38.7622C114.808 37.4078 114.913 36.9864 115.229 35.0602C115.349 34.3078 115.455 33.2694 115.455 32.7277C115.44 31.3282 114.988 28.3034 114.552 26.7835C114.462 26.4524 114.341 26.016 114.296 25.8053C114.251 25.5946 114.161 25.3539 114.1 25.2786C114.04 25.1883 113.905 24.8121 113.784 24.4058C113.679 24.0145 113.529 23.6985 113.468 23.6985C113.408 23.6985 113.348 23.5631 113.348 23.4126C113.348 23.2471 113.288 23.0665 113.197 23.0213C113.122 22.9762 113.047 22.7956 113.047 22.6301C113.047 22.4796 112.987 22.3441 112.896 22.3441C112.821 22.3441 112.746 22.1786 112.746 21.9679C112.746 21.7572 112.686 21.5917 112.596 21.5917C112.52 21.5917 112.445 21.4864 112.445 21.366C112.445 21.2456 112.385 21.1402 112.295 21.1402C112.219 21.1402 112.144 21.0048 112.144 20.8393C112.144 20.6737 112.084 20.5383 111.994 20.5383C111.918 20.5383 111.843 20.4029 111.843 20.2373C111.843 20.0718 111.783 19.9364 111.723 19.9364C111.647 19.9364 111.512 19.7708 111.422 19.5601C111.076 18.7927 108.924 15.6475 108.382 15.1208C108.262 15.0004 107.945 14.6242 107.705 14.2931C106.922 13.2397 104.725 11.1781 102.949 9.80863C102.001 9.0863 101.159 8.42416 101.053 8.34892C100.948 8.25863 100.692 8.12319 100.481 8.01785C100.271 7.92756 100.105 7.80717 100.105 7.74697C100.105 7.68678 99.9095 7.55134 99.6537 7.446C99.4129 7.34066 99.2022 7.20522 99.2022 7.12998C99.2022 7.05473 99.0668 6.99454 98.9013 6.99454C98.7357 6.99454 98.6003 6.9193 98.6003 6.84406C98.6003 6.75376 98.495 6.69357 98.3746 6.69357C98.2542 6.69357 98.1488 6.61832 98.1488 6.54308C98.1488 6.45279 98.0134 6.3926 97.8629 6.3926C97.6974 6.3926 97.5469 6.34745 97.5168 6.27221C97.4566 6.12172 95.5906 5.18871 95.3498 5.18871C95.2294 5.18871 95.1391 5.11346 95.1391 5.03822C95.1391 4.94793 95.0037 4.88773 94.8381 4.88773C94.6726 4.88773 94.5372 4.81249 94.5372 4.73725C94.5372 4.64696 94.4168 4.58676 94.2663 4.58676C94.1158 4.58676 93.9352 4.52657 93.8449 4.45132C93.5139 4.13531 88.1866 2.32947 86.8624 2.07365C86.6517 2.04355 86.3507 1.95325 86.1852 1.87801C86.0196 1.80276 85.6886 1.71247 85.4328 1.66732C85.192 1.62218 84.6502 1.51684 84.2289 1.42654C83.8225 1.33625 83.1755 1.21587 82.7992 1.17072C82.423 1.12557 82.0468 1.03528 81.9716 0.97509C81.8813 0.899841 81.4148 0.8246 80.9483 0.809555C80.4667 0.794502 80.0453 0.719261 80.0002 0.64402C79.9551 0.583824 79.4434 0.523628 78.8716 0.523628C78.2847 0.523628 77.6978 0.463432 77.5623 0.388191C77.4269 0.31295 75.8167 0.222656 73.9958 0.16246C72.1749 0.117317 70.354 0.0571213 69.9327 0.0119781C69.5264 -0.0181198 68.7739 0.0119781 68.2773 0.0721664Z" fill="white"/>
<path d="M68.6535 36.7908C68.0365 36.866 65.3277 37.1369 62.634 37.3927C53.5597 38.2505 53.3039 38.2956 52.3859 39.3039C52.1602 39.5296 51.4228 40.8087 50.7456 42.133C50.0684 43.4573 49.4063 44.6311 49.2709 44.7214C48.8345 45.0675 48.1874 44.9471 47.5854 44.4054C46.9233 43.8034 46.0053 43.6228 44.2296 43.7432C42.8903 43.8335 41.4907 44.4806 41.0694 45.2029C40.9189 45.4738 40.5126 45.8049 40.1665 45.9704C39.414 46.3316 37.8038 47.5656 37.8038 47.7913C37.8038 47.8816 37.9994 47.8966 38.3757 47.8214C38.6766 47.7612 39.8805 47.7161 41.0393 47.7161C43.3417 47.7311 44.7713 47.9719 46.4869 48.634C47.0437 48.8447 47.766 49.0554 48.082 49.0855C48.398 49.1306 50.4296 49.0554 52.5966 48.9199C57.5627 48.6039 62.935 48.2879 68.0515 48.002C72.1598 47.7762 77.7128 47.4452 82.3929 47.1593C84.7254 47.0238 85.1618 47.0389 85.8992 47.2495C86.9075 47.5355 87.7953 48.303 88.3371 49.3413L88.7283 50.1088L88.8337 55.6015C88.8939 58.6263 88.9842 66.888 89.0444 73.9759C89.1497 85.7439 89.1347 86.9328 88.9089 87.6099C88.5929 88.543 87.8405 89.4459 86.9075 90.0177C86.2152 90.424 86.0948 90.4391 84.4545 90.424C83.5065 90.424 80.271 90.1983 77.2914 89.9425C74.2967 89.6716 70.2035 89.3255 68.187 89.16C66.1705 89.0095 62.5137 88.6934 60.0758 88.4828C57.6379 88.2871 54.3122 88.0012 52.702 87.8658C51.0917 87.7454 49.2257 87.5798 48.5636 87.5197C47.4951 87.4143 47.2844 87.4444 46.6073 87.7454C45.5388 88.242 43.4771 88.7988 42.0174 89.0245C40.4223 89.2502 37.6684 89.1148 36.1184 88.7386C35.4713 88.5731 34.9446 88.5129 34.9446 88.5881C34.9446 88.874 36.4193 90.108 37.2922 90.5294C38.18 90.9658 38.4058 91.0109 45.4184 91.7182C54.1767 92.6061 58.2549 93.0124 61.1292 93.2983C62.3331 93.4187 65.3127 93.7197 67.7506 93.9605C70.1884 94.2163 73.2433 94.5173 74.5225 94.6377C75.8016 94.758 78.5555 95.044 80.6171 95.2546C82.6939 95.4653 84.8609 95.6309 85.4327 95.6309C87.5395 95.6309 89.5861 94.8182 91.1512 93.3435C92.4153 92.1697 93.1978 90.9658 93.7395 89.4308L94.1609 88.1818L94.1459 82.3128C94.1459 72.8924 93.7847 50.9816 93.6192 49.5821C93.1978 45.9554 90.2633 42.8854 86.6968 42.3437C85.6133 42.1631 83.2808 42.2685 76.9904 42.75L75.7715 42.8554L74.8987 41.2151C73.1229 37.8442 72.8671 37.4529 72.2501 37.1068C71.5579 36.7155 70.2637 36.6102 68.6535 36.7908Z" fill="white"/>
<path d="M37.6532 49.7178C35.8925 50.1241 34.9745 50.4552 33.4847 51.2377C28.5187 53.8261 24.9822 58.6416 23.6279 64.646C23.3269 66.0004 23.2817 66.6024 23.2817 69.0703C23.2968 72.1252 23.4924 73.3893 24.3502 75.8121C26.3216 81.3951 30.6706 85.5335 36.1182 86.9932C37.3371 87.3093 40.6177 87.4447 42.1678 87.219C47.4649 86.4364 52.3858 82.7194 55.0945 77.4374C56.6596 74.3975 57.397 71.3427 57.4271 67.8664C57.4722 58.8222 51.8591 51.328 43.793 49.6727C42.228 49.3416 39.158 49.3717 37.6532 49.7178ZM42.6794 56.5047C45.6139 57.2873 47.8411 59.1683 49.3159 62.148C50.8508 65.2329 51.0314 69.3262 49.7824 72.6369C48.4129 76.2184 45.7644 78.8519 42.3935 79.9956C40.8886 80.5073 38.1799 80.5073 36.7503 80.0107C33.1687 78.7616 30.776 76.1131 29.6323 72.1703C29.1657 70.53 29.1507 66.8582 29.6323 65.2931C30.7459 61.546 32.8978 58.8072 35.9978 57.1669C37.7585 56.2489 40.6027 55.963 42.6794 56.5047Z" fill="white"/>
<path d="M51.6034 50.6205C51.3024 50.6807 51.0014 50.771 50.9713 50.8162C50.9262 50.8613 51.2572 51.1773 51.6937 51.5235C52.5364 52.1555 53.951 53.6002 54.7335 54.5934C55.0796 55.0298 55.3655 55.2104 56.0126 55.3759C57.6529 55.7973 59.2932 56.7754 60.6927 58.1599C62.1675 59.6046 62.8748 60.658 63.5971 62.4187C64.3345 64.2245 64.6054 65.5939 64.6054 67.7007C64.6204 69.7323 64.4549 70.876 63.9282 72.4109C63.1908 74.5177 62.6942 75.4357 61.3699 77.0911C59.9704 78.8518 57.5777 80.462 55.4408 81.094C54.899 81.2445 54.5228 81.4702 54.2519 81.8163C53.3791 82.8848 51.7839 84.4498 50.9111 85.0969C50.4145 85.4731 50.0082 85.8193 49.9932 85.8644C49.9932 86.0299 51.1971 86.1654 52.7772 86.1654C59.3835 86.1955 65.418 81.5605 68.0365 74.4425C69.5413 70.3944 69.5263 65.2177 68.0365 61.1094C66.5617 57.0463 63.6423 53.7356 59.9102 51.8997C58.0743 50.9968 56.4942 50.6205 54.2068 50.5603C53.0932 50.5302 51.9194 50.5453 51.6034 50.6205Z" fill="white"/>
<path d="M60.753 50.6056L60.1511 50.711L61.2797 51.328C63.1758 52.3814 65.0569 53.9916 66.3059 55.6319C66.5317 55.9479 67.0433 56.3843 67.4346 56.6251C69.9327 58.1751 71.8589 60.7935 72.7919 63.9538C73.3788 65.9402 73.4691 68.6339 73.0176 70.8009C72.2652 74.4426 70.2938 77.5276 67.3744 79.5441C66.8026 79.9504 65.8846 80.7932 65.3428 81.3951C63.7025 83.2461 62.0622 84.5553 60.0608 85.5786L59.0977 86.0602L59.7748 86.1956C60.738 86.3762 63.2511 86.2107 64.6656 85.8645C66.9982 85.2927 68.9244 84.3446 70.7904 82.8548C78.2696 76.9257 80.0754 65.4737 74.8235 57.4227C74.056 56.2639 72.2201 54.3076 71.0463 53.4348C69.7671 52.4717 67.7055 51.4634 66.0953 51.027C64.5904 50.6207 61.9418 50.41 60.753 50.6056Z" fill="white"/>
</svg>
